<mxfile host="www.draw.io" modified="2020-01-17T02:54:17.362Z" agent="Mozilla/5.0 (Macintosh; Intel Mac OS X 10_14_6) AppleWebKit/605.1.15 (KHTML, like Gecko) Version/13.0.3 Safari/605.1.15" etag="Ye7E19_zyX0OYe_JfxCX" version="12.4.9" type="github">
  <diagram id="ggnpdaRKlYyGPWBdo7Kn" name="Page-1">
    <mxGraphModel dx="1482" dy="4286" grid="0" gridSize="10" guides="1" tooltips="1" connect="1" arrows="1" fold="1" page="1" pageScale="1" pageWidth="2339" pageHeight="3300" math="0" shadow="0">
      <root>
        <mxCell id="0"/>
        <mxCell id="1" parent="0"/>
        <mxCell id="Am0BHRrdn-XoFu_V9a6s-116" value="" style="ellipse;whiteSpace=wrap;html=1;shadow=0;strokeColor=#000000;fillColor=#FFFFFF;" vertex="1" parent="1">
          <mxGeometry x="258.5" y="5181" width="158" height="100" as="geometry"/>
        </mxCell>
        <mxCell id="Am0BHRrdn-XoFu_V9a6s-115" value="" style="ellipse;whiteSpace=wrap;html=1;shadow=0;strokeColor=#000000;fillColor=#FFFFFF;" vertex="1" parent="1">
          <mxGeometry x="410" y="5285" width="158" height="100" as="geometry"/>
        </mxCell>
        <mxCell id="Am0BHRrdn-XoFu_V9a6s-114" value="" style="ellipse;whiteSpace=wrap;html=1;shadow=0;strokeColor=#000000;fillColor=#FFFFFF;" vertex="1" parent="1">
          <mxGeometry x="555" y="5177" width="158" height="100" as="geometry"/>
        </mxCell>
        <mxCell id="Am0BHRrdn-XoFu_V9a6s-113" value="" style="ellipse;whiteSpace=wrap;html=1;shadow=0;strokeColor=#000000;fillColor=#FFFFFF;" vertex="1" parent="1">
          <mxGeometry x="416.5" y="5058.5" width="158" height="100" as="geometry"/>
        </mxCell>
        <mxCell id="Am0BHRrdn-XoFu_V9a6s-13" value="" style="ellipse;whiteSpace=wrap;html=1;fillColor=#D4E1F5;strokeColor=#D4E1F5;fontColor=#ffffff;shadow=1;" vertex="1" parent="1">
          <mxGeometry x="174" y="2234" width="962.5" height="300" as="geometry"/>
        </mxCell>
        <mxCell id="Am0BHRrdn-XoFu_V9a6s-12" value="" style="ellipse;whiteSpace=wrap;html=1;fillColor=#D5E8D4;strokeColor=#2D7600;fontColor=#ffffff;shadow=1;" vertex="1" parent="1">
          <mxGeometry x="186.5" y="1944" width="920" height="270" as="geometry"/>
        </mxCell>
        <mxCell id="Am0BHRrdn-XoFu_V9a6s-2" value="&lt;span style=&quot;white-space: normal ; color: rgb(67 , 67 , 67) ; font-family: &amp;#34;arial&amp;#34; , sans-serif ; font-size: 14px ; text-align: left ; background-color: rgb(255 , 255 , 255)&quot;&gt;&lt;b&gt;dedicated edge cluster C&lt;/b&gt;&lt;/span&gt;" style="ellipse;shape=cloud;whiteSpace=wrap;html=1;" vertex="1" parent="1">
          <mxGeometry x="736.5" y="2264" width="230" height="190" as="geometry"/>
        </mxCell>
        <mxCell id="Am0BHRrdn-XoFu_V9a6s-6" value="&lt;span style=&quot;white-space: normal ; color: rgb(67 , 67 , 67) ; font-family: &amp;#34;arial&amp;#34; , sans-serif ; font-size: 14px ; text-align: left ; background-color: rgb(255 , 255 , 255)&quot;&gt;&lt;b&gt;...&lt;/b&gt;&lt;/span&gt;" style="ellipse;shape=cloud;whiteSpace=wrap;html=1;" vertex="1" parent="1">
          <mxGeometry x="996.5" y="2364" width="120" height="90" as="geometry"/>
        </mxCell>
        <mxCell id="Am0BHRrdn-XoFu_V9a6s-7" value="&lt;span style=&quot;white-space: normal ; color: rgb(67 , 67 , 67) ; font-family: &amp;#34;arial&amp;#34; , sans-serif ; font-size: 14px ; text-align: left ; background-color: rgb(255 , 255 , 255)&quot;&gt;&lt;b&gt;dedicated edge cluster B&lt;/b&gt;&lt;/span&gt;" style="ellipse;shape=cloud;whiteSpace=wrap;html=1;" vertex="1" parent="1">
          <mxGeometry x="486.5" y="2234" width="230" height="190" as="geometry"/>
        </mxCell>
        <mxCell id="Am0BHRrdn-XoFu_V9a6s-8" value="&lt;span style=&quot;white-space: normal ; color: rgb(67 , 67 , 67) ; font-family: &amp;#34;arial&amp;#34; , sans-serif ; font-size: 14px ; text-align: left ; background-color: rgb(255 , 255 , 255)&quot;&gt;&lt;b&gt;dedicated edge cluster A&lt;/b&gt;&lt;/span&gt;" style="ellipse;shape=cloud;whiteSpace=wrap;html=1;" vertex="1" parent="1">
          <mxGeometry x="256.5" y="2314" width="230" height="190" as="geometry"/>
        </mxCell>
        <mxCell id="Am0BHRrdn-XoFu_V9a6s-9" value="&lt;b&gt;&lt;font style=&quot;font-size: 24px&quot;&gt;Private Cloud&lt;/font&gt;&lt;/b&gt;" style="ellipse;shape=cloud;whiteSpace=wrap;html=1;fillColor=#fff2cc;strokeColor=#d6b656;" vertex="1" parent="1">
          <mxGeometry x="226.5" y="2044" width="235" height="130" as="geometry"/>
        </mxCell>
        <mxCell id="Am0BHRrdn-XoFu_V9a6s-10" value="&lt;b&gt;&lt;font style=&quot;font-size: 24px&quot;&gt;Private &lt;/font&gt;&lt;/b&gt;&lt;b&gt;&lt;font style=&quot;font-size: 24px&quot;&gt;Cloud&lt;/font&gt;&lt;/b&gt;" style="ellipse;shape=cloud;whiteSpace=wrap;html=1;fillColor=#fff2cc;strokeColor=#d6b656;" vertex="1" parent="1">
          <mxGeometry x="516.5" y="2034" width="235" height="130" as="geometry"/>
        </mxCell>
        <mxCell id="Am0BHRrdn-XoFu_V9a6s-11" value="&lt;b&gt;&lt;font style=&quot;font-size: 24px&quot;&gt;Public Cloud&lt;/font&gt;&lt;/b&gt;" style="ellipse;shape=cloud;whiteSpace=wrap;html=1;fillColor=#fff2cc;strokeColor=#d6b656;" vertex="1" parent="1">
          <mxGeometry x="776.5" y="1974" width="290" height="200" as="geometry"/>
        </mxCell>
        <mxCell id="Am0BHRrdn-XoFu_V9a6s-14" value="" style="endArrow=none;html=1;exitX=0.4;exitY=0.1;exitDx=0;exitDy=0;exitPerimeter=0;entryX=0.55;entryY=0.95;entryDx=0;entryDy=0;entryPerimeter=0;strokeWidth=2;strokeColor=#6666FF;" edge="1" parent="1" source="Am0BHRrdn-XoFu_V9a6s-8" target="Am0BHRrdn-XoFu_V9a6s-9">
          <mxGeometry width="50" height="50" relative="1" as="geometry">
            <mxPoint x="176.5" y="2674" as="sourcePoint"/>
            <mxPoint x="226.5" y="2624" as="targetPoint"/>
          </mxGeometry>
        </mxCell>
        <mxCell id="Am0BHRrdn-XoFu_V9a6s-15" value="" style="endArrow=none;html=1;exitX=0.4;exitY=0.1;exitDx=0;exitDy=0;exitPerimeter=0;entryX=0.8;entryY=0.8;entryDx=0;entryDy=0;entryPerimeter=0;strokeWidth=2;strokeColor=#6666FF;" edge="1" parent="1" source="Am0BHRrdn-XoFu_V9a6s-7" target="Am0BHRrdn-XoFu_V9a6s-9">
          <mxGeometry width="50" height="50" relative="1" as="geometry">
            <mxPoint x="353.9000000000001" y="2354.02" as="sourcePoint"/>
            <mxPoint x="365.75" y="2177.5" as="targetPoint"/>
          </mxGeometry>
        </mxCell>
        <mxCell id="Am0BHRrdn-XoFu_V9a6s-16" value="" style="endArrow=none;html=1;exitX=0.4;exitY=0.1;exitDx=0;exitDy=0;exitPerimeter=0;entryX=0.8;entryY=0.8;entryDx=0;entryDy=0;entryPerimeter=0;strokeWidth=2;strokeColor=#6666FF;" edge="1" parent="1" source="Am0BHRrdn-XoFu_V9a6s-2">
          <mxGeometry width="50" height="50" relative="1" as="geometry">
            <mxPoint x="816.5" y="2264" as="sourcePoint"/>
            <mxPoint x="652.5" y="2159" as="targetPoint"/>
          </mxGeometry>
        </mxCell>
        <mxCell id="Am0BHRrdn-XoFu_V9a6s-17" value="" style="endArrow=none;html=1;exitX=0.625;exitY=0.2;exitDx=0;exitDy=0;exitPerimeter=0;entryX=0.8;entryY=0.8;entryDx=0;entryDy=0;entryPerimeter=0;strokeWidth=2;strokeColor=#6666FF;" edge="1" parent="1" source="Am0BHRrdn-XoFu_V9a6s-8">
          <mxGeometry width="50" height="50" relative="1" as="geometry">
            <mxPoint x="762.5" y="2264" as="sourcePoint"/>
            <mxPoint x="586.5" y="2140" as="targetPoint"/>
          </mxGeometry>
        </mxCell>
        <mxCell id="Am0BHRrdn-XoFu_V9a6s-18" value="" style="endArrow=none;html=1;exitX=0.625;exitY=0.2;exitDx=0;exitDy=0;exitPerimeter=0;strokeWidth=2;strokeColor=#6666FF;entryX=0.413;entryY=0.908;entryDx=0;entryDy=0;entryPerimeter=0;" edge="1" parent="1" source="Am0BHRrdn-XoFu_V9a6s-7" target="Am0BHRrdn-XoFu_V9a6s-10">
          <mxGeometry width="50" height="50" relative="1" as="geometry">
            <mxPoint x="838.5" y="2293" as="sourcePoint"/>
            <mxPoint x="662.5" y="2169" as="targetPoint"/>
          </mxGeometry>
        </mxCell>
        <mxCell id="Am0BHRrdn-XoFu_V9a6s-19" value="" style="endArrow=none;html=1;exitX=0.625;exitY=0.2;exitDx=0;exitDy=0;exitPerimeter=0;entryX=0.55;entryY=0.95;entryDx=0;entryDy=0;entryPerimeter=0;strokeWidth=2;strokeColor=#6666FF;" edge="1" parent="1" source="Am0BHRrdn-XoFu_V9a6s-2" target="Am0BHRrdn-XoFu_V9a6s-11">
          <mxGeometry width="50" height="50" relative="1" as="geometry">
            <mxPoint x="838.5" y="2293" as="sourcePoint"/>
            <mxPoint x="662.5" y="2169" as="targetPoint"/>
          </mxGeometry>
        </mxCell>
        <mxCell id="Am0BHRrdn-XoFu_V9a6s-20" value="" style="ellipse;whiteSpace=wrap;html=1;shadow=0;strokeColor=#000000;fillColor=none;" vertex="1" parent="1">
          <mxGeometry x="196.5" y="2554" width="930" height="100" as="geometry"/>
        </mxCell>
        <mxCell id="Am0BHRrdn-XoFu_V9a6s-26" value="" style="html=1;verticalLabelPosition=bottom;align=center;labelBackgroundColor=#ffffff;verticalAlign=top;strokeWidth=2;strokeColor=#0080F0;shadow=0;dashed=0;shape=mxgraph.ios7.icons.wifi;pointerEvents=1;fillColor=none;" vertex="1" parent="1">
          <mxGeometry x="836.65" y="2593.5" width="29.7" height="21" as="geometry"/>
        </mxCell>
        <mxCell id="Am0BHRrdn-XoFu_V9a6s-27" value="" style="html=1;verticalLabelPosition=bottom;align=center;labelBackgroundColor=#ffffff;verticalAlign=top;strokeWidth=2;strokeColor=#0080F0;shadow=0;dashed=0;shape=mxgraph.ios7.icons.wifi;pointerEvents=1;fillColor=none;" vertex="1" parent="1">
          <mxGeometry x="606.5" y="2588.5" width="29.7" height="21" as="geometry"/>
        </mxCell>
        <mxCell id="Am0BHRrdn-XoFu_V9a6s-28" value="" style="image;html=1;labelBackgroundColor=#ffffff;image=img/lib/clip_art/networking/Router_Icon_128x128.png;shadow=0;strokeColor=#000000;fillColor=none;" vertex="1" parent="1">
          <mxGeometry x="319" y="2589" width="50" height="30" as="geometry"/>
        </mxCell>
        <mxCell id="Am0BHRrdn-XoFu_V9a6s-29" value="" style="image;html=1;labelBackgroundColor=#ffffff;image=img/lib/clip_art/networking/Router_Icon_128x128.png;shadow=0;strokeColor=#000000;fillColor=none;" vertex="1" parent="1">
          <mxGeometry x="726.5" y="2588.5" width="50" height="30" as="geometry"/>
        </mxCell>
        <mxCell id="Am0BHRrdn-XoFu_V9a6s-32" value="" style="fontColor=#0066CC;verticalAlign=top;verticalLabelPosition=bottom;labelPosition=center;align=center;html=1;outlineConnect=0;fillColor=#CCCCCC;strokeColor=#6881B3;gradientColor=none;gradientDirection=north;strokeWidth=2;shape=mxgraph.networks.radio_tower;shadow=0;" vertex="1" parent="1">
          <mxGeometry x="466.5" y="2584" width="30" height="40" as="geometry"/>
        </mxCell>
        <mxCell id="Am0BHRrdn-XoFu_V9a6s-33" value="" style="fontColor=#0066CC;verticalAlign=top;verticalLabelPosition=bottom;labelPosition=center;align=center;html=1;outlineConnect=0;fillColor=#CCCCCC;strokeColor=#6881B3;gradientColor=none;gradientDirection=north;strokeWidth=2;shape=mxgraph.networks.radio_tower;shadow=0;" vertex="1" parent="1">
          <mxGeometry x="956.5" y="2579" width="30" height="40" as="geometry"/>
        </mxCell>
        <mxCell id="Am0BHRrdn-XoFu_V9a6s-34" value="" style="ellipse;whiteSpace=wrap;html=1;shadow=1;strokeColor=#B09500;fillColor=#e3c800;fontColor=#ffffff;" vertex="1" parent="1">
          <mxGeometry x="190.25" y="2704" width="930" height="110" as="geometry"/>
        </mxCell>
        <mxCell id="Am0BHRrdn-XoFu_V9a6s-35" value="" style="shape=image;html=1;verticalAlign=top;verticalLabelPosition=bottom;labelBackgroundColor=#ffffff;imageAspect=0;aspect=fixed;image=https://cdn0.iconfinder.com/data/icons/isometric-city-basic-transport/480/car-front-02-128.png;shadow=0;strokeColor=#000000;fillColor=none;" vertex="1" parent="1">
          <mxGeometry x="326.5" y="2729" width="60" height="60" as="geometry"/>
        </mxCell>
        <mxCell id="Am0BHRrdn-XoFu_V9a6s-36" value="" style="shape=image;html=1;verticalAlign=top;verticalLabelPosition=bottom;labelBackgroundColor=#ffffff;imageAspect=0;aspect=fixed;image=https://cdn0.iconfinder.com/data/icons/isometric-city-basic-transport/480/car-front-02-128.png;shadow=0;strokeColor=#000000;fillColor=none;" vertex="1" parent="1">
          <mxGeometry x="876.5" y="2729" width="60" height="60" as="geometry"/>
        </mxCell>
        <mxCell id="Am0BHRrdn-XoFu_V9a6s-37" value="" style="shape=image;html=1;verticalAlign=top;verticalLabelPosition=bottom;labelBackgroundColor=#ffffff;imageAspect=0;aspect=fixed;image=https://cdn2.iconfinder.com/data/icons/japan-flat-2/340/travel_train_japan_transportation_transport_speed_fast-128.png;shadow=0;strokeColor=#000000;fillColor=none;" vertex="1" parent="1">
          <mxGeometry x="796.5" y="2714" width="50" height="50" as="geometry"/>
        </mxCell>
        <mxCell id="Am0BHRrdn-XoFu_V9a6s-38" value="" style="shape=image;html=1;verticalAlign=top;verticalLabelPosition=bottom;labelBackgroundColor=#ffffff;imageAspect=0;aspect=fixed;image=https://cdn2.iconfinder.com/data/icons/japan-flat-2/340/travel_train_japan_transportation_transport_speed_fast-128.png;shadow=0;strokeColor=#000000;fillColor=none;" vertex="1" parent="1">
          <mxGeometry x="446.5" y="2714" width="50" height="50" as="geometry"/>
        </mxCell>
        <mxCell id="Am0BHRrdn-XoFu_V9a6s-40" value="" style="image;html=1;labelBackgroundColor=#ffffff;image=img/lib/clip_art/networking/Ip_Camera_128x128.png;shadow=0;strokeColor=#000000;fillColor=none;" vertex="1" parent="1">
          <mxGeometry x="726.5" y="2764" width="50" height="50" as="geometry"/>
        </mxCell>
        <mxCell id="Am0BHRrdn-XoFu_V9a6s-41" value="" style="shape=image;html=1;verticalAlign=top;verticalLabelPosition=bottom;labelBackgroundColor=#ffffff;imageAspect=0;aspect=fixed;image=https://cdn3.iconfinder.com/data/icons/wpzoom-developer-icon-set/500/41-128.png;shadow=0;strokeColor=#000000;fillColor=none;" vertex="1" parent="1">
          <mxGeometry x="636.2" y="2714" width="68" height="68" as="geometry"/>
        </mxCell>
        <mxCell id="Am0BHRrdn-XoFu_V9a6s-42" value="" style="shape=image;html=1;verticalAlign=top;verticalLabelPosition=bottom;labelBackgroundColor=#ffffff;imageAspect=0;aspect=fixed;image=https://cdn3.iconfinder.com/data/icons/wpzoom-developer-icon-set/500/41-128.png;shadow=0;strokeColor=#000000;fillColor=none;" vertex="1" parent="1">
          <mxGeometry x="506.5" y="2734" width="68" height="68" as="geometry"/>
        </mxCell>
        <mxCell id="Am0BHRrdn-XoFu_V9a6s-43" value="" style="verticalLabelPosition=bottom;aspect=fixed;html=1;verticalAlign=top;strokeColor=none;align=center;outlineConnect=0;shape=mxgraph.citrix.cell_phone;shadow=0;fillColor=none;" vertex="1" parent="1">
          <mxGeometry x="406.5" y="2738" width="25" height="60" as="geometry"/>
        </mxCell>
        <mxCell id="Am0BHRrdn-XoFu_V9a6s-44" value="" style="verticalLabelPosition=bottom;aspect=fixed;html=1;verticalAlign=top;strokeColor=none;align=center;outlineConnect=0;shape=mxgraph.citrix.cell_phone;shadow=0;fillColor=none;" vertex="1" parent="1">
          <mxGeometry x="961.5" y="2729" width="25" height="60" as="geometry"/>
        </mxCell>
        <mxCell id="Am0BHRrdn-XoFu_V9a6s-45" value="&lt;b&gt;&lt;font style=&quot;font-size: 18px&quot;&gt;communication bus&lt;/font&gt;&lt;/b&gt;" style="text;html=1;" vertex="1" parent="1">
          <mxGeometry x="1166.5" y="2588.5" width="130" height="30" as="geometry"/>
        </mxCell>
        <mxCell id="Am0BHRrdn-XoFu_V9a6s-46" value="&lt;font size=&quot;4&quot;&gt;&lt;b style=&quot;background-color: rgb(255 , 255 , 255)&quot;&gt;edge device&lt;/b&gt;&lt;/font&gt;" style="text;html=1;" vertex="1" parent="1">
          <mxGeometry x="1166.5" y="2744" width="130" height="30" as="geometry"/>
        </mxCell>
        <mxCell id="Am0BHRrdn-XoFu_V9a6s-47" value="&lt;span style=&quot;white-space: normal ; color: rgb(67 , 67 , 67) ; font-family: &amp;#34;arial&amp;#34; , sans-serif ; font-size: 14px ; text-align: left ; background-color: rgb(255 , 255 , 255)&quot;&gt;&lt;b&gt;Traffic edge cluster&lt;/b&gt;&lt;/span&gt;" style="ellipse;shape=cloud;whiteSpace=wrap;html=1;" vertex="1" parent="1">
          <mxGeometry x="633.5" y="3670" width="230" height="190" as="geometry"/>
        </mxCell>
        <mxCell id="Am0BHRrdn-XoFu_V9a6s-48" value="&lt;span style=&quot;white-space: normal ; color: rgb(67 , 67 , 67) ; font-family: &amp;#34;arial&amp;#34; , sans-serif ; font-size: 14px ; text-align: left ; background-color: rgb(255 , 255 , 255)&quot;&gt;&lt;b&gt;...&lt;/b&gt;&lt;/span&gt;" style="ellipse;shape=cloud;whiteSpace=wrap;html=1;" vertex="1" parent="1">
          <mxGeometry x="516.5" y="3830.5" width="120" height="90" as="geometry"/>
        </mxCell>
        <mxCell id="Am0BHRrdn-XoFu_V9a6s-49" value="&lt;span style=&quot;white-space: normal ; color: rgb(67 , 67 , 67) ; font-family: &amp;#34;arial&amp;#34; , sans-serif ; font-size: 14px ; text-align: left ; background-color: rgb(255 , 255 , 255)&quot;&gt;&lt;b&gt;Smart community&lt;br&gt;edge cluster&lt;/b&gt;&lt;/span&gt;" style="ellipse;shape=cloud;whiteSpace=wrap;html=1;" vertex="1" parent="1">
          <mxGeometry x="367.85" y="3359" width="230" height="190" as="geometry"/>
        </mxCell>
        <mxCell id="Am0BHRrdn-XoFu_V9a6s-50" value="&lt;b&gt;&lt;span style=&quot;color: rgb(67 , 67 , 67) ; font-family: &amp;#34;arial&amp;#34; , sans-serif ; font-size: 14px ; background-color: rgb(252 , 252 , 254)&quot;&gt;&amp;nbsp;Forest health monitoring&lt;br&gt;&lt;/span&gt;&lt;span style=&quot;white-space: normal ; color: rgb(67 , 67 , 67) ; font-family: &amp;#34;arial&amp;#34; , sans-serif ; font-size: 14px ; text-align: left ; background-color: rgb(255 , 255 , 255)&quot;&gt;edge cluster&lt;/span&gt;&lt;/b&gt;" style="ellipse;shape=cloud;whiteSpace=wrap;html=1;" vertex="1" parent="1">
          <mxGeometry x="195.85" y="3556" width="230" height="190" as="geometry"/>
        </mxCell>
        <mxCell id="Am0BHRrdn-XoFu_V9a6s-51" value="" style="shape=image;html=1;verticalAlign=top;verticalLabelPosition=bottom;labelBackgroundColor=#ffffff;imageAspect=0;aspect=fixed;image=https://cdn1.iconfinder.com/data/icons/iconnice-vector-icon/30/Vector-icons_49-128.png;shadow=1;strokeColor=#000000;fillColor=none;" vertex="1" parent="1">
          <mxGeometry x="203.85" y="3860" width="31" height="31" as="geometry"/>
        </mxCell>
        <mxCell id="Am0BHRrdn-XoFu_V9a6s-52" value="" style="shape=image;html=1;verticalAlign=top;verticalLabelPosition=bottom;labelBackgroundColor=#ffffff;imageAspect=0;aspect=fixed;image=https://cdn1.iconfinder.com/data/icons/iconnice-vector-icon/30/Vector-icons_49-128.png;shadow=1;strokeColor=#000000;fillColor=none;" vertex="1" parent="1">
          <mxGeometry x="250.35" y="3884" width="31" height="31" as="geometry"/>
        </mxCell>
        <mxCell id="Am0BHRrdn-XoFu_V9a6s-54" value="" style="shape=image;html=1;verticalAlign=top;verticalLabelPosition=bottom;labelBackgroundColor=#ffffff;imageAspect=0;aspect=fixed;image=https://cdn1.iconfinder.com/data/icons/iconnice-vector-icon/30/Vector-icons_49-128.png;shadow=1;strokeColor=#000000;fillColor=none;" vertex="1" parent="1">
          <mxGeometry x="293.85" y="3901" width="31" height="31" as="geometry"/>
        </mxCell>
        <mxCell id="Am0BHRrdn-XoFu_V9a6s-55" value="" style="shape=image;html=1;verticalAlign=top;verticalLabelPosition=bottom;labelBackgroundColor=#ffffff;imageAspect=0;aspect=fixed;image=https://cdn1.iconfinder.com/data/icons/iconnice-vector-icon/30/Vector-icons_49-128.png;shadow=1;strokeColor=#000000;fillColor=none;" vertex="1" parent="1">
          <mxGeometry x="340.85" y="3881" width="31" height="31" as="geometry"/>
        </mxCell>
        <mxCell id="Am0BHRrdn-XoFu_V9a6s-58" value="" style="ellipse;whiteSpace=wrap;html=1;shadow=1;strokeColor=#000000;fillColor=none;" vertex="1" parent="1">
          <mxGeometry x="182.85" y="3839" width="201" height="103" as="geometry"/>
        </mxCell>
        <mxCell id="Am0BHRrdn-XoFu_V9a6s-59" value="" style="perimeter=ellipsePerimeter;verticalLabelPosition=bottom;shadow=0;dashed=0;align=center;html=1;verticalAlign=top;shape=mxgraph.electrical.instruments.oscilloscope;strokeColor=#000000;fillColor=none;" vertex="1" parent="1">
          <mxGeometry x="311.85" y="3860" width="37" height="35" as="geometry"/>
        </mxCell>
        <mxCell id="Am0BHRrdn-XoFu_V9a6s-60" value="" style="perimeter=ellipsePerimeter;verticalLabelPosition=bottom;shadow=0;dashed=0;align=center;html=1;verticalAlign=top;shape=mxgraph.electrical.instruments.oscilloscope;strokeColor=#000000;fillColor=none;" vertex="1" parent="1">
          <mxGeometry x="256.85" y="3849" width="37" height="35" as="geometry"/>
        </mxCell>
        <mxCell id="Am0BHRrdn-XoFu_V9a6s-65" value="" style="fontColor=#0066CC;verticalAlign=top;verticalLabelPosition=bottom;labelPosition=center;align=center;html=1;outlineConnect=0;fillColor=#CCCCCC;strokeColor=#6881B3;gradientColor=none;gradientDirection=north;strokeWidth=2;shape=mxgraph.networks.radio_tower;shadow=0;" vertex="1" parent="1">
          <mxGeometry x="318.85" y="3773" width="30" height="40" as="geometry"/>
        </mxCell>
        <mxCell id="Am0BHRrdn-XoFu_V9a6s-66" value="" style="endArrow=none;html=1;strokeColor=#6666FF;strokeWidth=2;exitX=0.458;exitY=-0.01;exitDx=0;exitDy=0;exitPerimeter=0;" edge="1" parent="1" source="Am0BHRrdn-XoFu_V9a6s-58" target="Am0BHRrdn-XoFu_V9a6s-65">
          <mxGeometry width="50" height="50" relative="1" as="geometry">
            <mxPoint x="182.85" y="4016" as="sourcePoint"/>
            <mxPoint x="232.85" y="3966" as="targetPoint"/>
          </mxGeometry>
        </mxCell>
        <mxCell id="Am0BHRrdn-XoFu_V9a6s-67" value="" style="endArrow=none;html=1;strokeColor=#6666FF;strokeWidth=2;exitX=0.5;exitY=0.15;exitDx=0;exitDy=0;exitPerimeter=0;entryX=0.55;entryY=0.95;entryDx=0;entryDy=0;entryPerimeter=0;" edge="1" parent="1" source="Am0BHRrdn-XoFu_V9a6s-65" target="Am0BHRrdn-XoFu_V9a6s-50">
          <mxGeometry width="50" height="50" relative="1" as="geometry">
            <mxPoint x="284.908" y="3847.9700000000003" as="sourcePoint"/>
            <mxPoint x="285.2025929631483" y="3808" as="targetPoint"/>
          </mxGeometry>
        </mxCell>
        <mxCell id="Am0BHRrdn-XoFu_V9a6s-68" value="" style="image;html=1;labelBackgroundColor=#ffffff;image=img/lib/clip_art/networking/Router_Icon_128x128.png;shadow=0;strokeColor=#000000;fillColor=none;" vertex="1" parent="1">
          <mxGeometry x="728.55" y="3607.49" width="50" height="30" as="geometry"/>
        </mxCell>
        <mxCell id="Am0BHRrdn-XoFu_V9a6s-69" value="" style="html=1;verticalLabelPosition=bottom;align=center;labelBackgroundColor=#ffffff;verticalAlign=top;strokeWidth=2;strokeColor=#0080F0;shadow=0;dashed=0;shape=mxgraph.ios7.icons.wifi;pointerEvents=1;fillColor=none;" vertex="1" parent="1">
          <mxGeometry x="614.8500000000001" y="3443.5" width="29.7" height="21" as="geometry"/>
        </mxCell>
        <mxCell id="Am0BHRrdn-XoFu_V9a6s-70" value="" style="endArrow=none;html=1;strokeColor=#6666FF;strokeWidth=2;exitX=-0.128;exitY=0.476;exitDx=0;exitDy=0;exitPerimeter=0;entryX=0.875;entryY=0.5;entryDx=0;entryDy=0;entryPerimeter=0;" edge="1" parent="1" source="Am0BHRrdn-XoFu_V9a6s-69" target="Am0BHRrdn-XoFu_V9a6s-49">
          <mxGeometry width="50" height="50" relative="1" as="geometry">
            <mxPoint x="219.85" y="3799" as="sourcePoint"/>
            <mxPoint x="208.35" y="3756.5" as="targetPoint"/>
          </mxGeometry>
        </mxCell>
        <mxCell id="Am0BHRrdn-XoFu_V9a6s-71" value="" style="endArrow=none;html=1;strokeColor=#6666FF;strokeWidth=2;entryX=0.4;entryY=0.1;entryDx=0;entryDy=0;entryPerimeter=0;" edge="1" parent="1" source="Am0BHRrdn-XoFu_V9a6s-68" target="Am0BHRrdn-XoFu_V9a6s-47">
          <mxGeometry width="50" height="50" relative="1" as="geometry">
            <mxPoint x="741" y="3639" as="sourcePoint"/>
            <mxPoint x="639.75" y="3579" as="targetPoint"/>
          </mxGeometry>
        </mxCell>
        <mxCell id="Am0BHRrdn-XoFu_V9a6s-72" value="" style="ellipse;whiteSpace=wrap;html=1;shadow=1;strokeColor=#000000;fillColor=none;" vertex="1" parent="1">
          <mxGeometry x="708.85" y="3402.5" width="201" height="103" as="geometry"/>
        </mxCell>
        <mxCell id="Am0BHRrdn-XoFu_V9a6s-74" value="" style="endArrow=none;html=1;strokeColor=#6666FF;strokeWidth=2;entryX=0;entryY=0.5;entryDx=0;entryDy=0;" edge="1" parent="1" target="Am0BHRrdn-XoFu_V9a6s-72">
          <mxGeometry width="50" height="50" relative="1" as="geometry">
            <mxPoint x="648.85" y="3454" as="sourcePoint"/>
            <mxPoint x="580.1" y="3464" as="targetPoint"/>
          </mxGeometry>
        </mxCell>
        <mxCell id="Am0BHRrdn-XoFu_V9a6s-75" value="" style="verticalLabelPosition=bottom;aspect=fixed;html=1;verticalAlign=top;strokeColor=none;align=center;outlineConnect=0;shape=mxgraph.citrix.cell_phone;shadow=0;fillColor=none;" vertex="1" parent="1">
          <mxGeometry x="746.85" y="3428" width="11.25" height="27" as="geometry"/>
        </mxCell>
        <mxCell id="Am0BHRrdn-XoFu_V9a6s-76" value="" style="shape=image;html=1;verticalAlign=top;verticalLabelPosition=bottom;labelBackgroundColor=#ffffff;imageAspect=0;aspect=fixed;image=https://cdn0.iconfinder.com/data/icons/isometric-city-basic-transport/480/car-front-02-128.png;shadow=0;strokeColor=#000000;fillColor=none;" vertex="1" parent="1">
          <mxGeometry x="861.05" y="3618.49" width="60" height="60" as="geometry"/>
        </mxCell>
        <mxCell id="Am0BHRrdn-XoFu_V9a6s-77" value="" style="ellipse;whiteSpace=wrap;html=1;shadow=1;strokeColor=#000000;fillColor=none;" vertex="1" parent="1">
          <mxGeometry x="834.05" y="3612.49" width="201" height="103" as="geometry"/>
        </mxCell>
        <mxCell id="Am0BHRrdn-XoFu_V9a6s-78" value="" style="shape=image;html=1;verticalAlign=top;verticalLabelPosition=bottom;labelBackgroundColor=#ffffff;imageAspect=0;aspect=fixed;image=https://cdn2.iconfinder.com/data/icons/circle-icons-1/64/traffic-128.png;shadow=1;strokeColor=#000000;fillColor=none;" vertex="1" parent="1">
          <mxGeometry x="934.05" y="3628.49" width="29.5" height="29.5" as="geometry"/>
        </mxCell>
        <mxCell id="Am0BHRrdn-XoFu_V9a6s-79" value="" style="shape=image;html=1;verticalAlign=top;verticalLabelPosition=bottom;labelBackgroundColor=#ffffff;imageAspect=0;aspect=fixed;image=https://cdn3.iconfinder.com/data/icons/wpzoom-developer-icon-set/500/41-128.png;shadow=0;strokeColor=#000000;fillColor=none;" vertex="1" parent="1">
          <mxGeometry x="917.05" y="3673.49" width="35" height="35" as="geometry"/>
        </mxCell>
        <mxCell id="Am0BHRrdn-XoFu_V9a6s-80" value="" style="endArrow=none;html=1;strokeColor=#6666FF;strokeWidth=2;exitX=0;exitY=0.5;exitDx=0;exitDy=0;entryX=1;entryY=0.75;entryDx=0;entryDy=0;" edge="1" parent="1" source="Am0BHRrdn-XoFu_V9a6s-77" target="Am0BHRrdn-XoFu_V9a6s-68">
          <mxGeometry width="50" height="50" relative="1" as="geometry">
            <mxPoint x="751.05" y="3617.49" as="sourcePoint"/>
            <mxPoint x="781.05" y="3637.49" as="targetPoint"/>
          </mxGeometry>
        </mxCell>
        <mxCell id="Am0BHRrdn-XoFu_V9a6s-81" value="" style="image;html=1;labelBackgroundColor=#ffffff;image=img/lib/clip_art/computers/iPad_128x128.png;shadow=1;strokeColor=#000000;fillColor=none;" vertex="1" parent="1">
          <mxGeometry x="755.85" y="3455" width="54" height="40" as="geometry"/>
        </mxCell>
        <mxCell id="Am0BHRrdn-XoFu_V9a6s-82" value="" style="shape=image;html=1;verticalAlign=top;verticalLabelPosition=bottom;labelBackgroundColor=#ffffff;imageAspect=0;aspect=fixed;image=https://cdn2.iconfinder.com/data/icons/home-appliances-furnitures/100/fridge-128.png;shadow=1;strokeColor=#000000;fillColor=none;" vertex="1" parent="1">
          <mxGeometry x="781.85" y="3412" width="35" height="35" as="geometry"/>
        </mxCell>
        <mxCell id="Am0BHRrdn-XoFu_V9a6s-83" value="" style="shape=image;html=1;verticalAlign=top;verticalLabelPosition=bottom;labelBackgroundColor=#ffffff;imageAspect=0;aspect=fixed;image=https://cdn2.iconfinder.com/data/icons/architecture-interior/24/architecture-interior-11-128.png;shadow=1;strokeColor=#000000;fillColor=none;" vertex="1" parent="1">
          <mxGeometry x="816.85" y="3450" width="32" height="32" as="geometry"/>
        </mxCell>
        <mxCell id="Am0BHRrdn-XoFu_V9a6s-84" value="" style="shape=image;html=1;verticalAlign=top;verticalLabelPosition=bottom;labelBackgroundColor=#ffffff;imageAspect=0;aspect=fixed;image=https://cdn3.iconfinder.com/data/icons/doing-housework-part-1/64/house-40-128.png;shadow=1;strokeColor=#000000;fillColor=none;" vertex="1" parent="1">
          <mxGeometry x="848.85" y="3428" width="35" height="35" as="geometry"/>
        </mxCell>
        <mxCell id="Am0BHRrdn-XoFu_V9a6s-85" value="" style="shape=image;html=1;verticalAlign=top;verticalLabelPosition=bottom;labelBackgroundColor=#ffffff;imageAspect=0;aspect=fixed;image=https://cdn2.iconfinder.com/data/icons/pittogrammi/142/46-128.png;shadow=1;strokeColor=#000000;fillColor=none;" vertex="1" parent="1">
          <mxGeometry x="400" y="3658" width="128" height="128" as="geometry"/>
        </mxCell>
        <mxCell id="Am0BHRrdn-XoFu_V9a6s-86" value="" style="fontColor=#0066CC;verticalAlign=top;verticalLabelPosition=bottom;labelPosition=center;align=center;html=1;outlineConnect=0;fillColor=#CCCCCC;strokeColor=#6881B3;gradientColor=none;gradientDirection=north;strokeWidth=2;shape=mxgraph.networks.community;shadow=1;" vertex="1" parent="1">
          <mxGeometry x="502.85" y="3537.49" width="95" height="100" as="geometry"/>
        </mxCell>
        <mxCell id="Am0BHRrdn-XoFu_V9a6s-88" value="" style="shape=mxgraph.signs.transportation.highway;html=1;fillColor=#000000;strokeColor=none;verticalLabelPosition=bottom;verticalAlign=top;align=center;shadow=1;" vertex="1" parent="1">
          <mxGeometry x="591" y="3645" width="68" height="98" as="geometry"/>
        </mxCell>
        <mxCell id="Am0BHRrdn-XoFu_V9a6s-92" value="" style="edgeStyle=none;rounded=0;orthogonalLoop=1;jettySize=auto;html=1;strokeColor=#BD7000;strokeWidth=2;fillColor=#f0a30a;" edge="1" parent="1" source="Am0BHRrdn-XoFu_V9a6s-90">
          <mxGeometry relative="1" as="geometry">
            <mxPoint x="739" y="189.07333333333327" as="targetPoint"/>
          </mxGeometry>
        </mxCell>
        <mxCell id="Am0BHRrdn-XoFu_V9a6s-90" value="ML Model &amp;nbsp;(e.g LSTM)" style="rounded=1;whiteSpace=wrap;html=1;shadow=0;strokeColor=#BD7000;fillColor=#f0a30a;fontColor=#ffffff;" vertex="1" parent="1">
          <mxGeometry x="455" y="153" width="204" height="77" as="geometry"/>
        </mxCell>
        <mxCell id="Am0BHRrdn-XoFu_V9a6s-93" value="coming request" style="shape=tape;whiteSpace=wrap;html=1;shadow=0;strokeColor=#BD7000;fillColor=#f0a30a;fontColor=#ffffff;" vertex="1" parent="1">
          <mxGeometry x="736.5" y="144" width="124.5" height="91" as="geometry"/>
        </mxCell>
        <mxCell id="Am0BHRrdn-XoFu_V9a6s-98" value="" style="endArrow=classic;html=1;strokeColor=#BD7000;strokeWidth=2;fillColor=#f0a30a;" edge="1" parent="1">
          <mxGeometry width="50" height="50" relative="1" as="geometry">
            <mxPoint x="391" y="257" as="sourcePoint"/>
            <mxPoint x="454" y="211" as="targetPoint"/>
          </mxGeometry>
        </mxCell>
        <mxCell id="Am0BHRrdn-XoFu_V9a6s-99" value="" style="endArrow=classic;html=1;strokeColor=#6666FF;strokeWidth=2;entryX=0;entryY=0.25;entryDx=0;entryDy=0;" edge="1" parent="1" target="Am0BHRrdn-XoFu_V9a6s-90">
          <mxGeometry width="50" height="50" relative="1" as="geometry">
            <mxPoint x="389" y="142" as="sourcePoint"/>
            <mxPoint x="446.5" y="166" as="targetPoint"/>
          </mxGeometry>
        </mxCell>
        <mxCell id="Am0BHRrdn-XoFu_V9a6s-100" value="current request" style="shape=tape;whiteSpace=wrap;html=1;shadow=0;strokeColor=#BD7000;fillColor=#f0a30a;rotation=-30;fontColor=#ffffff;" vertex="1" parent="1">
          <mxGeometry x="319" y="241" width="80.15" height="82" as="geometry"/>
        </mxCell>
        <mxCell id="Am0BHRrdn-XoFu_V9a6s-101" value="&lt;font color=&quot;#ffffff&quot;&gt;other cluster request&lt;/font&gt;" style="shape=tape;whiteSpace=wrap;html=1;shadow=0;strokeColor=#000000;fillColor=#9999FF;rotation=15;direction=east;" vertex="1" parent="1">
          <mxGeometry x="309" y="90" width="80.15" height="82" as="geometry"/>
        </mxCell>
        <mxCell id="Am0BHRrdn-XoFu_V9a6s-103" value="" style="shadow=0;dashed=0;html=1;strokeColor=none;fillColor=#4495D1;labelPosition=center;verticalLabelPosition=bottom;verticalAlign=top;align=center;outlineConnect=0;shape=mxgraph.veeam.building;" vertex="1" parent="1">
          <mxGeometry x="289" y="5196" width="54.15" height="70" as="geometry"/>
        </mxCell>
        <mxCell id="Am0BHRrdn-XoFu_V9a6s-106" value="" style="shape=image;html=1;verticalAlign=top;verticalLabelPosition=bottom;labelBackgroundColor=#ffffff;imageAspect=0;aspect=fixed;image=https://cdn0.iconfinder.com/data/icons/hamburg/32/free-for-job.png;shadow=0;strokeColor=#000000;fillColor=#9999FF;" vertex="1" parent="1">
          <mxGeometry x="351.84999999999997" y="5193" width="32" height="32" as="geometry"/>
        </mxCell>
        <mxCell id="Am0BHRrdn-XoFu_V9a6s-107" value="" style="shape=image;html=1;verticalAlign=top;verticalLabelPosition=bottom;labelBackgroundColor=#ffffff;imageAspect=0;aspect=fixed;image=https://cdn3.iconfinder.com/data/icons/emergency-outline/439/tsunami_water_disaster_earthquake_sea_wave_destruction_danger_nature_storm_flood-128.png;shadow=0;strokeColor=#000000;fillColor=#9999FF;" vertex="1" parent="1">
          <mxGeometry x="603" y="5194" width="66" height="66" as="geometry"/>
        </mxCell>
        <mxCell id="Am0BHRrdn-XoFu_V9a6s-110" value="" style="shape=image;html=1;verticalAlign=top;verticalLabelPosition=bottom;labelBackgroundColor=#ffffff;imageAspect=0;aspect=fixed;image=https://cdn1.iconfinder.com/data/icons/weather-413/58/Cloud_lightening_storm_thunder_weather_1-128.png;shadow=0;strokeColor=#000000;fillColor=#9999FF;" vertex="1" parent="1">
          <mxGeometry x="455" y="5068" width="81" height="81" as="geometry"/>
        </mxCell>
        <mxCell id="Am0BHRrdn-XoFu_V9a6s-112" value="" style="shape=image;html=1;verticalAlign=top;verticalLabelPosition=bottom;labelBackgroundColor=#ffffff;imageAspect=0;aspect=fixed;image=https://cdn4.iconfinder.com/data/icons/aiga-symbol-signs/566/aiga_groundtransportion-128.png;shadow=0;strokeColor=#000000;fillColor=#9999FF;" vertex="1" parent="1">
          <mxGeometry x="429.15" y="5288" width="84" height="84" as="geometry"/>
        </mxCell>
        <mxCell id="Am0BHRrdn-XoFu_V9a6s-117" value="" style="shape=arrow;endArrow=classic;html=1;strokeColor=#6666FF;strokeWidth=2;" edge="1" parent="1">
          <mxGeometry width="50" height="50" relative="1" as="geometry">
            <mxPoint x="425" y="4982" as="sourcePoint"/>
            <mxPoint x="425" y="5056" as="targetPoint"/>
          </mxGeometry>
        </mxCell>
        <mxCell id="Am0BHRrdn-XoFu_V9a6s-122" value="" style="shape=arrow;endArrow=classic;html=1;strokeColor=#6666FF;strokeWidth=2;" edge="1" parent="1">
          <mxGeometry width="50" height="50" relative="1" as="geometry">
            <mxPoint x="458" y="4982" as="sourcePoint"/>
            <mxPoint x="458" y="5056" as="targetPoint"/>
          </mxGeometry>
        </mxCell>
        <mxCell id="Am0BHRrdn-XoFu_V9a6s-123" value="" style="shape=arrow;endArrow=classic;html=1;strokeColor=#6666FF;strokeWidth=2;" edge="1" parent="1">
          <mxGeometry width="50" height="50" relative="1" as="geometry">
            <mxPoint x="489.85" y="4982" as="sourcePoint"/>
            <mxPoint x="489.85" y="5056" as="targetPoint"/>
          </mxGeometry>
        </mxCell>
        <mxCell id="Am0BHRrdn-XoFu_V9a6s-124" value="" style="shape=arrow;endArrow=classic;html=1;strokeColor=#6666FF;strokeWidth=2;" edge="1" parent="1">
          <mxGeometry width="50" height="50" relative="1" as="geometry">
            <mxPoint x="521.9999999999999" y="4982" as="sourcePoint"/>
            <mxPoint x="521.9999999999999" y="5056" as="targetPoint"/>
          </mxGeometry>
        </mxCell>
        <mxCell id="Am0BHRrdn-XoFu_V9a6s-125" value="" style="shape=arrow;endArrow=classic;html=1;strokeColor=#6666FF;strokeWidth=2;" edge="1" parent="1">
          <mxGeometry width="50" height="50" relative="1" as="geometry">
            <mxPoint x="554" y="4982" as="sourcePoint"/>
            <mxPoint x="554" y="5056" as="targetPoint"/>
          </mxGeometry>
        </mxCell>
        <mxCell id="Am0BHRrdn-XoFu_V9a6s-131" value="" style="shape=arrow;endArrow=classic;html=1;strokeColor=#6666FF;strokeWidth=2;entryX=0;entryY=0.5;entryDx=0;entryDy=0;" edge="1" parent="1" target="Am0BHRrdn-XoFu_V9a6s-116">
          <mxGeometry width="50" height="50" relative="1" as="geometry">
            <mxPoint x="188" y="5231" as="sourcePoint"/>
            <mxPoint x="212" y="5264" as="targetPoint"/>
            <Array as="points">
              <mxPoint x="207" y="5218"/>
            </Array>
          </mxGeometry>
        </mxCell>
        <mxCell id="Am0BHRrdn-XoFu_V9a6s-132" value="" style="shape=arrow;endArrow=classic;html=1;strokeColor=#6666FF;strokeWidth=2;entryX=0.5;entryY=1;entryDx=0;entryDy=0;" edge="1" parent="1" target="Am0BHRrdn-XoFu_V9a6s-115">
          <mxGeometry width="50" height="50" relative="1" as="geometry">
            <mxPoint x="489" y="5437" as="sourcePoint"/>
            <mxPoint x="506.75" y="5421" as="targetPoint"/>
            <Array as="points">
              <mxPoint x="455.25" y="5408"/>
            </Array>
          </mxGeometry>
        </mxCell>
        <mxCell id="Am0BHRrdn-XoFu_V9a6s-133" value="" style="shape=flexArrow;endArrow=classic;html=1;strokeColor=#6666FF;strokeWidth=2;" edge="1" parent="1">
          <mxGeometry width="50" height="50" relative="1" as="geometry">
            <mxPoint x="794.51" y="5194" as="sourcePoint"/>
            <mxPoint x="711.51" y="5194" as="targetPoint"/>
          </mxGeometry>
        </mxCell>
        <mxCell id="Am0BHRrdn-XoFu_V9a6s-134" value="" style="shape=flexArrow;endArrow=classic;html=1;strokeColor=#6666FF;strokeWidth=2;" edge="1" parent="1">
          <mxGeometry width="50" height="50" relative="1" as="geometry">
            <mxPoint x="794.48" y="5229" as="sourcePoint"/>
            <mxPoint x="711.48" y="5229" as="targetPoint"/>
          </mxGeometry>
        </mxCell>
        <mxCell id="Am0BHRrdn-XoFu_V9a6s-135" value="" style="shape=flexArrow;endArrow=classic;html=1;strokeColor=#6666FF;strokeWidth=2;" edge="1" parent="1">
          <mxGeometry width="50" height="50" relative="1" as="geometry">
            <mxPoint x="794.97" y="5264" as="sourcePoint"/>
            <mxPoint x="711.97" y="5264" as="targetPoint"/>
          </mxGeometry>
        </mxCell>
        <mxCell id="Am0BHRrdn-XoFu_V9a6s-139" value="" style="edgeStyle=none;rounded=0;orthogonalLoop=1;jettySize=auto;html=1;strokeColor=#6666FF;strokeWidth=2;" edge="1" parent="1" target="Am0BHRrdn-XoFu_V9a6s-152">
          <mxGeometry relative="1" as="geometry">
            <mxPoint x="398" y="609" as="sourcePoint"/>
            <mxPoint x="398" y="689" as="targetPoint"/>
          </mxGeometry>
        </mxCell>
        <mxCell id="Am0BHRrdn-XoFu_V9a6s-137" value="App A request comes" style="rounded=1;whiteSpace=wrap;html=1;shadow=0;strokeColor=#000000;fillColor=#FFFFFF;" vertex="1" parent="1">
          <mxGeometry x="337.75" y="607" width="119" height="37" as="geometry"/>
        </mxCell>
        <mxCell id="Am0BHRrdn-XoFu_V9a6s-154" value="" style="edgeStyle=none;rounded=0;orthogonalLoop=1;jettySize=auto;html=1;strokeColor=#6666FF;strokeWidth=2;" edge="1" parent="1" target="Am0BHRrdn-XoFu_V9a6s-140">
          <mxGeometry relative="1" as="geometry">
            <mxPoint x="396.6732954545455" y="702" as="sourcePoint"/>
          </mxGeometry>
        </mxCell>
        <mxCell id="Am0BHRrdn-XoFu_V9a6s-143" value="" style="edgeStyle=none;rounded=0;orthogonalLoop=1;jettySize=auto;html=1;strokeColor=#6666FF;strokeWidth=2;" edge="1" parent="1" source="Am0BHRrdn-XoFu_V9a6s-140">
          <mxGeometry relative="1" as="geometry">
            <mxPoint x="397" y="875" as="targetPoint"/>
          </mxGeometry>
        </mxCell>
        <mxCell id="Am0BHRrdn-XoFu_V9a6s-145" value="No" style="text;html=1;align=center;verticalAlign=middle;resizable=0;points=[];labelBackgroundColor=#ffffff;" vertex="1" connectable="0" parent="Am0BHRrdn-XoFu_V9a6s-143">
          <mxGeometry x="-0.1999" relative="1" as="geometry">
            <mxPoint as="offset"/>
          </mxGeometry>
        </mxCell>
        <mxCell id="Am0BHRrdn-XoFu_V9a6s-147" value="" style="edgeStyle=none;rounded=0;orthogonalLoop=1;jettySize=auto;html=1;strokeColor=#6666FF;strokeWidth=2;entryX=0.5;entryY=0;entryDx=0;entryDy=0;" edge="1" parent="1" source="Am0BHRrdn-XoFu_V9a6s-140" target="Am0BHRrdn-XoFu_V9a6s-144">
          <mxGeometry relative="1" as="geometry">
            <mxPoint x="228" y="774.5" as="targetPoint"/>
            <Array as="points">
              <mxPoint x="234" y="775"/>
            </Array>
          </mxGeometry>
        </mxCell>
        <mxCell id="Am0BHRrdn-XoFu_V9a6s-148" value="Yes" style="text;html=1;align=center;verticalAlign=middle;resizable=0;points=[];labelBackgroundColor=#ffffff;" vertex="1" connectable="0" parent="Am0BHRrdn-XoFu_V9a6s-147">
          <mxGeometry x="-0.1846" y="13" relative="1" as="geometry">
            <mxPoint x="-15" y="13" as="offset"/>
          </mxGeometry>
        </mxCell>
        <mxCell id="Am0BHRrdn-XoFu_V9a6s-140" value="Can complete App A before deadline in local cluster?" style="rhombus;whiteSpace=wrap;html=1;shadow=0;strokeColor=#000000;fillColor=#FFFFFF;" vertex="1" parent="1">
          <mxGeometry x="308" y="735" width="178.5" height="79" as="geometry"/>
        </mxCell>
        <mxCell id="Am0BHRrdn-XoFu_V9a6s-144" value="Schedule App A to the server based on local cluster policy" style="rounded=0;whiteSpace=wrap;html=1;shadow=0;strokeColor=#000000;fillColor=#FFFFFF;" vertex="1" parent="1">
          <mxGeometry x="174" y="821" width="120" height="60" as="geometry"/>
        </mxCell>
        <mxCell id="Am0BHRrdn-XoFu_V9a6s-152" value="Record request info&amp;nbsp;" style="rounded=1;whiteSpace=wrap;html=1;shadow=0;strokeColor=#000000;fillColor=#FFFFFF;" vertex="1" parent="1">
          <mxGeometry x="337.75" y="671" width="119" height="37" as="geometry"/>
        </mxCell>
        <mxCell id="Am0BHRrdn-XoFu_V9a6s-159" value="" style="edgeStyle=none;rounded=0;orthogonalLoop=1;jettySize=auto;html=1;strokeColor=#6666FF;strokeWidth=2;" edge="1" parent="1" source="Am0BHRrdn-XoFu_V9a6s-156">
          <mxGeometry relative="1" as="geometry">
            <mxPoint x="397.2450000000001" y="971" as="targetPoint"/>
          </mxGeometry>
        </mxCell>
        <mxCell id="Am0BHRrdn-XoFu_V9a6s-156" value="&lt;div style=&quot;text-align: left&quot;&gt;&lt;span style=&quot;font-size: 12px&quot;&gt;Send App A&amp;nbsp;&lt;/span&gt;&lt;span style=&quot;color: rgb(67 , 67 , 67) ; font-family: &amp;#34;arial&amp;#34; , sans-serif ; font-size: 14px ; text-align: left ; background-color: rgb(252 , 252 , 254)&quot;&gt;transfer request to other&amp;nbsp;&lt;/span&gt;&lt;font color=&quot;#434343&quot; face=&quot;Arial, sans-serif&quot;&gt;&lt;span style=&quot;font-size: 14px&quot;&gt;neighbour cluster and get the reply&lt;/span&gt;&lt;/font&gt;&lt;/div&gt;" style="rounded=0;whiteSpace=wrap;html=1;shadow=0;strokeColor=#000000;fillColor=#FFFFFF;" vertex="1" parent="1">
          <mxGeometry x="302.17" y="873" width="190.15" height="58" as="geometry"/>
        </mxCell>
        <mxCell id="Am0BHRrdn-XoFu_V9a6s-162" value="" style="edgeStyle=none;rounded=0;orthogonalLoop=1;jettySize=auto;html=1;strokeColor=#6666FF;strokeWidth=2;entryX=0.5;entryY=0;entryDx=0;entryDy=0;" edge="1" parent="1" source="Am0BHRrdn-XoFu_V9a6s-160" target="Am0BHRrdn-XoFu_V9a6s-164">
          <mxGeometry relative="1" as="geometry">
            <mxPoint x="228" y="1009.5" as="targetPoint"/>
            <Array as="points">
              <mxPoint x="237" y="1010"/>
            </Array>
          </mxGeometry>
        </mxCell>
        <mxCell id="Am0BHRrdn-XoFu_V9a6s-163" value="No" style="text;html=1;align=center;verticalAlign=middle;resizable=0;points=[];labelBackgroundColor=#ffffff;" vertex="1" connectable="0" parent="Am0BHRrdn-XoFu_V9a6s-162">
          <mxGeometry x="-0.225" y="-3" relative="1" as="geometry">
            <mxPoint as="offset"/>
          </mxGeometry>
        </mxCell>
        <mxCell id="Am0BHRrdn-XoFu_V9a6s-166" value="" style="edgeStyle=none;rounded=0;orthogonalLoop=1;jettySize=auto;html=1;strokeColor=#6666FF;strokeWidth=2;entryX=0.5;entryY=0;entryDx=0;entryDy=0;exitX=1;exitY=0.5;exitDx=0;exitDy=0;" edge="1" parent="1" source="Am0BHRrdn-XoFu_V9a6s-160" target="Am0BHRrdn-XoFu_V9a6s-167">
          <mxGeometry relative="1" as="geometry">
            <mxPoint x="566.5" y="1009.5" as="targetPoint"/>
            <Array as="points">
              <mxPoint x="560" y="1010"/>
            </Array>
          </mxGeometry>
        </mxCell>
        <mxCell id="Am0BHRrdn-XoFu_V9a6s-168" value="Yes" style="text;html=1;align=center;verticalAlign=middle;resizable=0;points=[];labelBackgroundColor=#ffffff;" vertex="1" connectable="0" parent="Am0BHRrdn-XoFu_V9a6s-166">
          <mxGeometry x="-0.0625" y="2" relative="1" as="geometry">
            <mxPoint as="offset"/>
          </mxGeometry>
        </mxCell>
        <mxCell id="Am0BHRrdn-XoFu_V9a6s-160" value="any app-accept reply? &amp;nbsp;" style="rhombus;whiteSpace=wrap;html=1;shadow=0;strokeColor=#000000;fillColor=#FFFFFF;" vertex="1" parent="1">
          <mxGeometry x="308" y="970" width="178.5" height="79" as="geometry"/>
        </mxCell>
        <mxCell id="Am0BHRrdn-XoFu_V9a6s-164" value="transfer to cloud or reject" style="rounded=0;whiteSpace=wrap;html=1;shadow=0;strokeColor=#000000;fillColor=#FFFFFF;" vertex="1" parent="1">
          <mxGeometry x="177" y="1053" width="120" height="60" as="geometry"/>
        </mxCell>
        <mxCell id="Am0BHRrdn-XoFu_V9a6s-167" value="get a candidate cluster based on policy" style="rounded=0;whiteSpace=wrap;html=1;shadow=0;strokeColor=#000000;fillColor=#FFFFFF;" vertex="1" parent="1">
          <mxGeometry x="500.35" y="1054" width="120" height="60" as="geometry"/>
        </mxCell>
        <mxCell id="Am0BHRrdn-XoFu_V9a6s-171" value="" style="edgeStyle=none;rounded=0;orthogonalLoop=1;jettySize=auto;html=1;strokeColor=#6666FF;strokeWidth=2;" edge="1" parent="1" source="Am0BHRrdn-XoFu_V9a6s-169" target="Am0BHRrdn-XoFu_V9a6s-170">
          <mxGeometry relative="1" as="geometry"/>
        </mxCell>
        <mxCell id="Am0BHRrdn-XoFu_V9a6s-169" value="App A transfer request from other cluster comes" style="rounded=1;whiteSpace=wrap;html=1;shadow=0;strokeColor=#000000;fillColor=#FFFFFF;" vertex="1" parent="1">
          <mxGeometry x="909.85" y="600" width="120" height="60" as="geometry"/>
        </mxCell>
        <mxCell id="Am0BHRrdn-XoFu_V9a6s-173" value="" style="edgeStyle=none;rounded=0;orthogonalLoop=1;jettySize=auto;html=1;strokeColor=#6666FF;strokeWidth=2;" edge="1" parent="1" source="Am0BHRrdn-XoFu_V9a6s-170" target="Am0BHRrdn-XoFu_V9a6s-172">
          <mxGeometry relative="1" as="geometry"/>
        </mxCell>
        <mxCell id="Am0BHRrdn-XoFu_V9a6s-170" value="Predict what scale App request from local cluster may come based on workload model" style="rounded=1;whiteSpace=wrap;html=1;shadow=0;strokeColor=#000000;fillColor=#FFFFFF;" vertex="1" parent="1">
          <mxGeometry x="909.85" y="699" width="120.15" height="89" as="geometry"/>
        </mxCell>
        <mxCell id="Am0BHRrdn-XoFu_V9a6s-175" value="" style="edgeStyle=none;rounded=0;orthogonalLoop=1;jettySize=auto;html=1;strokeColor=#6666FF;strokeWidth=2;" edge="1" parent="1" source="Am0BHRrdn-XoFu_V9a6s-172" target="Am0BHRrdn-XoFu_V9a6s-174">
          <mxGeometry relative="1" as="geometry"/>
        </mxCell>
        <mxCell id="Am0BHRrdn-XoFu_V9a6s-172" value="compute how confident this cluster can complete App A before deadline&amp;nbsp;" style="rounded=1;whiteSpace=wrap;html=1;shadow=0;strokeColor=#000000;fillColor=#FFFFFF;" vertex="1" parent="1">
          <mxGeometry x="909.7" y="829" width="120.3" height="77" as="geometry"/>
        </mxCell>
        <mxCell id="Am0BHRrdn-XoFu_V9a6s-174" value="send reply including confidence value back" style="rounded=1;whiteSpace=wrap;html=1;shadow=0;strokeColor=#000000;fillColor=#FFFFFF;" vertex="1" parent="1">
          <mxGeometry x="909.7" y="962" width="120.3" height="77" as="geometry"/>
        </mxCell>
        <mxCell id="Am0BHRrdn-XoFu_V9a6s-176" value="Text" style="text;html=1;strokeColor=none;fillColor=none;align=center;verticalAlign=middle;whiteSpace=wrap;rounded=0;shadow=0;" vertex="1" parent="1">
          <mxGeometry x="170" y="5476" width="40" height="20" as="geometry"/>
        </mxCell>
        <mxCell id="Am0BHRrdn-XoFu_V9a6s-177" value="&lt;b&gt;&lt;font style=&quot;font-size: 18px ; background-color: rgb(255 , 255 , 255)&quot;&gt;Edge Cluster A&lt;/font&gt;&lt;/b&gt;" style="text;html=1;strokeColor=none;fillColor=none;align=center;verticalAlign=middle;whiteSpace=wrap;rounded=0;shadow=0;" vertex="1" parent="1">
          <mxGeometry x="315.67" y="548" width="163.15" height="21" as="geometry"/>
        </mxCell>
        <mxCell id="Am0BHRrdn-XoFu_V9a6s-178" value="&lt;b&gt;&lt;font style=&quot;font-size: 18px ; background-color: rgb(255 , 255 , 255)&quot;&gt;Edge Cluster B&lt;/font&gt;&lt;/b&gt;" style="text;html=1;strokeColor=none;fillColor=none;align=center;verticalAlign=middle;whiteSpace=wrap;rounded=0;shadow=0;" vertex="1" parent="1">
          <mxGeometry x="876.5" y="548" width="163.15" height="21" as="geometry"/>
        </mxCell>
        <mxCell id="Am0BHRrdn-XoFu_V9a6s-179" value="" style="endArrow=classic;html=1;strokeColor=#6666FF;strokeWidth=2;" edge="1" parent="1">
          <mxGeometry width="50" height="50" relative="1" as="geometry">
            <mxPoint x="170" y="5567" as="sourcePoint"/>
            <mxPoint x="220" y="5517" as="targetPoint"/>
          </mxGeometry>
        </mxCell>
        <mxCell id="Am0BHRrdn-XoFu_V9a6s-180" value="" style="curved=1;endArrow=classic;html=1;dashed=1;strokeColor=#6666FF;strokeWidth=2;entryX=0.5;entryY=0;entryDx=0;entryDy=0;" edge="1" parent="1" target="Am0BHRrdn-XoFu_V9a6s-169">
          <mxGeometry width="50" height="50" relative="1" as="geometry">
            <mxPoint x="494" y="890" as="sourcePoint"/>
            <mxPoint x="910" y="600" as="targetPoint"/>
            <Array as="points">
              <mxPoint x="519" y="737"/>
              <mxPoint x="739" y="542"/>
            </Array>
          </mxGeometry>
        </mxCell>
        <mxCell id="Am0BHRrdn-XoFu_V9a6s-182" value="" style="curved=1;endArrow=classic;html=1;dashed=1;strokeColor=#6666FF;strokeWidth=2;entryX=1;entryY=0.75;entryDx=0;entryDy=0;exitX=0.5;exitY=1;exitDx=0;exitDy=0;" edge="1" parent="1" source="Am0BHRrdn-XoFu_V9a6s-174" target="Am0BHRrdn-XoFu_V9a6s-156">
          <mxGeometry width="50" height="50" relative="1" as="geometry">
            <mxPoint x="966" y="1047" as="sourcePoint"/>
            <mxPoint x="862" y="1047" as="targetPoint"/>
            <Array as="points">
              <mxPoint x="917" y="1071"/>
              <mxPoint x="852" y="1092"/>
              <mxPoint x="647" y="1063"/>
            </Array>
          </mxGeometry>
        </mxCell>
        <mxCell id="Am0BHRrdn-XoFu_V9a6s-183" value="" style="pointerEvents=1;shadow=0;dashed=0;html=1;strokeColor=none;fillColor=#505050;labelPosition=center;verticalLabelPosition=bottom;verticalAlign=top;outlineConnect=0;align=center;shape=mxgraph.office.devices.tablet_ipad;" vertex="1" parent="1">
          <mxGeometry x="558.85" y="-601" width="39" height="52" as="geometry"/>
        </mxCell>
        <mxCell id="Am0BHRrdn-XoFu_V9a6s-184" value="" style="pointerEvents=1;shadow=0;dashed=0;html=1;strokeColor=none;fillColor=#505050;labelPosition=center;verticalLabelPosition=bottom;verticalAlign=top;outlineConnect=0;align=center;shape=mxgraph.office.devices.nic;" vertex="1" parent="1">
          <mxGeometry x="967" y="3651" width="34" height="31" as="geometry"/>
        </mxCell>
        <mxCell id="Am0BHRrdn-XoFu_V9a6s-185" value="App A: 0.7" style="shape=step;perimeter=stepPerimeter;whiteSpace=wrap;html=1;fixedSize=1;shadow=0;strokeColor=#3A5431;fillColor=#6d8764;fontColor=#ffffff;" vertex="1" parent="1">
          <mxGeometry x="293.85" y="6090" width="135.15" height="41" as="geometry"/>
        </mxCell>
        <mxCell id="Am0BHRrdn-XoFu_V9a6s-187" value="App B: 0.8" style="shape=step;perimeter=stepPerimeter;whiteSpace=wrap;html=1;fixedSize=1;shadow=0;strokeColor=#B09500;fillColor=#e3c800;fontColor=#ffffff;" vertex="1" parent="1">
          <mxGeometry x="408" y="6090" width="176" height="41" as="geometry"/>
        </mxCell>
        <mxCell id="Am0BHRrdn-XoFu_V9a6s-191" value="" style="shape=crossbar;whiteSpace=wrap;html=1;rounded=1;shadow=0;strokeColor=#000000;fillColor=#FFFFFF;" vertex="1" parent="1">
          <mxGeometry x="276.5" y="6054" width="120" height="20" as="geometry"/>
        </mxCell>
        <mxCell id="Am0BHRrdn-XoFu_V9a6s-193" value="" style="shape=crossbar;whiteSpace=wrap;html=1;rounded=1;shadow=0;strokeColor=#000000;fillColor=#FFFFFF;" vertex="1" parent="1">
          <mxGeometry x="396.5" y="6054" width="120" height="20" as="geometry"/>
        </mxCell>
        <mxCell id="Am0BHRrdn-XoFu_V9a6s-195" value="" style="shape=crossbar;whiteSpace=wrap;html=1;rounded=1;shadow=0;strokeColor=#000000;fillColor=#FFFFFF;" vertex="1" parent="1">
          <mxGeometry x="516.5" y="6054" width="120" height="20" as="geometry"/>
        </mxCell>
        <mxCell id="Am0BHRrdn-XoFu_V9a6s-196" value="" style="shape=crossbar;whiteSpace=wrap;html=1;rounded=1;shadow=0;strokeColor=#000000;fillColor=#FFFFFF;" vertex="1" parent="1">
          <mxGeometry x="636.5" y="6054" width="120" height="20" as="geometry"/>
        </mxCell>
        <mxCell id="Am0BHRrdn-XoFu_V9a6s-201" value="" style="shape=crossbar;whiteSpace=wrap;html=1;rounded=1;shadow=0;strokeColor=#000000;fillColor=#FFFFFF;" vertex="1" parent="1">
          <mxGeometry x="756.5" y="6054" width="120" height="20" as="geometry"/>
        </mxCell>
        <mxCell id="Am0BHRrdn-XoFu_V9a6s-202" value="" style="shape=crossbar;whiteSpace=wrap;html=1;rounded=1;shadow=0;strokeColor=#000000;fillColor=#FFFFFF;" vertex="1" parent="1">
          <mxGeometry x="876.5" y="6054" width="120" height="20" as="geometry"/>
        </mxCell>
        <mxCell id="Am0BHRrdn-XoFu_V9a6s-203" value="" style="shape=crossbar;whiteSpace=wrap;html=1;rounded=1;shadow=0;strokeColor=#000000;fillColor=#FFFFFF;" vertex="1" parent="1">
          <mxGeometry x="996.5" y="6054" width="120" height="20" as="geometry"/>
        </mxCell>
        <mxCell id="Am0BHRrdn-XoFu_V9a6s-204" value="" style="shape=crossbar;whiteSpace=wrap;html=1;rounded=1;shadow=0;strokeColor=#000000;fillColor=#FFFFFF;" vertex="1" parent="1">
          <mxGeometry x="1116.5" y="6054" width="120" height="20" as="geometry"/>
        </mxCell>
        <mxCell id="Am0BHRrdn-XoFu_V9a6s-206" value="App B: 0.8" style="shape=step;perimeter=stepPerimeter;whiteSpace=wrap;html=1;fixedSize=1;shadow=0;strokeColor=#B09500;fillColor=#e3c800;fontColor=#ffffff;" vertex="1" parent="1">
          <mxGeometry x="370.5" y="6131" width="176" height="41" as="geometry"/>
        </mxCell>
        <mxCell id="Am0BHRrdn-XoFu_V9a6s-207" value="" style="endArrow=classic;html=1;strokeWidth=2;entryX=1;entryY=0.5;entryDx=0;entryDy=0;entryPerimeter=0;fillColor=none;strokeColor=#6666FF;" edge="1" parent="1">
          <mxGeometry width="50" height="50" relative="1" as="geometry">
            <mxPoint x="1024" y="5958" as="sourcePoint"/>
            <mxPoint x="997.5" y="6054" as="targetPoint"/>
          </mxGeometry>
        </mxCell>
        <mxCell id="Am0BHRrdn-XoFu_V9a6s-208" value="&lt;b&gt;&lt;font color=&quot;#6666ff&quot;&gt;Deadline&lt;/font&gt;&lt;/b&gt;" style="text;html=1;strokeColor=none;fillColor=none;align=center;verticalAlign=middle;whiteSpace=wrap;rounded=0;shadow=0;" vertex="1" parent="1">
          <mxGeometry x="1007" y="5937" width="40" height="20" as="geometry"/>
        </mxCell>
        <mxCell id="Am0BHRrdn-XoFu_V9a6s-209" value="&lt;font color=&quot;#6666ff&quot;&gt;&lt;b&gt;Time Line&lt;/b&gt;&lt;/font&gt;" style="text;html=1;strokeColor=none;fillColor=none;align=center;verticalAlign=middle;whiteSpace=wrap;rounded=0;shadow=0;" vertex="1" parent="1">
          <mxGeometry x="207.15" y="6054" width="69.35" height="20" as="geometry"/>
        </mxCell>
        <mxCell id="Am0BHRrdn-XoFu_V9a6s-211" value="" style="endArrow=none;dashed=1;html=1;strokeColor=#000000;strokeWidth=2;entryX=1;entryY=1;entryDx=0;entryDy=0;entryPerimeter=0;" edge="1" parent="1" target="Am0BHRrdn-XoFu_V9a6s-196">
          <mxGeometry width="50" height="50" relative="1" as="geometry">
            <mxPoint x="757" y="6201" as="sourcePoint"/>
            <mxPoint x="212" y="6193" as="targetPoint"/>
          </mxGeometry>
        </mxCell>
        <mxCell id="Am0BHRrdn-XoFu_V9a6s-212" value="&lt;font color=&quot;#000000&quot;&gt;App X: 1.2&lt;/font&gt;" style="shape=step;perimeter=stepPerimeter;whiteSpace=wrap;html=1;fixedSize=1;shadow=0;strokeColor=#6666FF;fillColor=#FFFFFF;fontColor=#ffffff;dashed=1;strokeWidth=3;" vertex="1" parent="1">
          <mxGeometry x="754.5" y="6002" width="240.5" height="41" as="geometry"/>
        </mxCell>
        <mxCell id="Am0BHRrdn-XoFu_V9a6s-213" value="App A: 0.7" style="shape=step;perimeter=stepPerimeter;whiteSpace=wrap;html=1;fixedSize=1;shadow=0;strokeColor=#3A5431;fillColor=#6d8764;fontColor=#ffffff;" vertex="1" parent="1">
          <mxGeometry x="290.55" y="6380" width="135.15" height="41" as="geometry"/>
        </mxCell>
        <mxCell id="Am0BHRrdn-XoFu_V9a6s-214" value="App B: 0.8" style="shape=step;perimeter=stepPerimeter;whiteSpace=wrap;html=1;fixedSize=1;shadow=0;strokeColor=#B09500;fillColor=#e3c800;fontColor=#ffffff;" vertex="1" parent="1">
          <mxGeometry x="404.7" y="6380" width="176" height="41" as="geometry"/>
        </mxCell>
        <mxCell id="Am0BHRrdn-XoFu_V9a6s-215" value="" style="shape=crossbar;whiteSpace=wrap;html=1;rounded=1;shadow=0;strokeColor=#000000;fillColor=#FFFFFF;" vertex="1" parent="1">
          <mxGeometry x="273.2" y="6344" width="120" height="20" as="geometry"/>
        </mxCell>
        <mxCell id="Am0BHRrdn-XoFu_V9a6s-216" value="" style="shape=crossbar;whiteSpace=wrap;html=1;rounded=1;shadow=0;strokeColor=#000000;fillColor=#FFFFFF;" vertex="1" parent="1">
          <mxGeometry x="393.2" y="6344" width="120" height="20" as="geometry"/>
        </mxCell>
        <mxCell id="Am0BHRrdn-XoFu_V9a6s-217" value="" style="shape=crossbar;whiteSpace=wrap;html=1;rounded=1;shadow=0;strokeColor=#000000;fillColor=#FFFFFF;" vertex="1" parent="1">
          <mxGeometry x="513.2" y="6344" width="120" height="20" as="geometry"/>
        </mxCell>
        <mxCell id="Am0BHRrdn-XoFu_V9a6s-218" value="" style="shape=crossbar;whiteSpace=wrap;html=1;rounded=1;shadow=0;strokeColor=#000000;fillColor=#FFFFFF;" vertex="1" parent="1">
          <mxGeometry x="633.2" y="6344" width="120" height="20" as="geometry"/>
        </mxCell>
        <mxCell id="Am0BHRrdn-XoFu_V9a6s-219" value="" style="shape=crossbar;whiteSpace=wrap;html=1;rounded=1;shadow=0;strokeColor=#000000;fillColor=#FFFFFF;" vertex="1" parent="1">
          <mxGeometry x="753.2" y="6344" width="120" height="20" as="geometry"/>
        </mxCell>
        <mxCell id="Am0BHRrdn-XoFu_V9a6s-220" value="" style="shape=crossbar;whiteSpace=wrap;html=1;rounded=1;shadow=0;strokeColor=#000000;fillColor=#FFFFFF;" vertex="1" parent="1">
          <mxGeometry x="873.2" y="6344" width="120" height="20" as="geometry"/>
        </mxCell>
        <mxCell id="Am0BHRrdn-XoFu_V9a6s-221" value="" style="shape=crossbar;whiteSpace=wrap;html=1;rounded=1;shadow=0;strokeColor=#000000;fillColor=#FFFFFF;" vertex="1" parent="1">
          <mxGeometry x="993.2" y="6344" width="120" height="20" as="geometry"/>
        </mxCell>
        <mxCell id="Am0BHRrdn-XoFu_V9a6s-222" value="" style="shape=crossbar;whiteSpace=wrap;html=1;rounded=1;shadow=0;strokeColor=#000000;fillColor=#FFFFFF;" vertex="1" parent="1">
          <mxGeometry x="1113.2" y="6344" width="120" height="20" as="geometry"/>
        </mxCell>
        <mxCell id="Am0BHRrdn-XoFu_V9a6s-223" value="App B: 0.8" style="shape=step;perimeter=stepPerimeter;whiteSpace=wrap;html=1;fixedSize=1;shadow=0;strokeColor=#B09500;fillColor=#e3c800;fontColor=#ffffff;" vertex="1" parent="1">
          <mxGeometry x="367.2" y="6421" width="176" height="41" as="geometry"/>
        </mxCell>
        <mxCell id="Am0BHRrdn-XoFu_V9a6s-224" value="" style="endArrow=classic;html=1;strokeWidth=2;entryX=1;entryY=0.5;entryDx=0;entryDy=0;entryPerimeter=0;fillColor=none;strokeColor=#6666FF;" edge="1" parent="1">
          <mxGeometry width="50" height="50" relative="1" as="geometry">
            <mxPoint x="1020.7" y="6248" as="sourcePoint"/>
            <mxPoint x="994.2" y="6344" as="targetPoint"/>
          </mxGeometry>
        </mxCell>
        <mxCell id="Am0BHRrdn-XoFu_V9a6s-225" value="&lt;b&gt;&lt;font color=&quot;#6666ff&quot;&gt;Deadline&lt;/font&gt;&lt;/b&gt;" style="text;html=1;strokeColor=none;fillColor=none;align=center;verticalAlign=middle;whiteSpace=wrap;rounded=0;shadow=0;" vertex="1" parent="1">
          <mxGeometry x="1003.7" y="6227" width="40" height="20" as="geometry"/>
        </mxCell>
        <mxCell id="Am0BHRrdn-XoFu_V9a6s-226" value="&lt;font color=&quot;#6666ff&quot;&gt;&lt;b&gt;Time Line&lt;/b&gt;&lt;/font&gt;" style="text;html=1;strokeColor=none;fillColor=none;align=center;verticalAlign=middle;whiteSpace=wrap;rounded=0;shadow=0;" vertex="1" parent="1">
          <mxGeometry x="203.85" y="6344" width="69.35" height="20" as="geometry"/>
        </mxCell>
        <mxCell id="Am0BHRrdn-XoFu_V9a6s-227" value="App C: 1.1" style="shape=step;perimeter=stepPerimeter;whiteSpace=wrap;html=1;fixedSize=1;shadow=0;strokeColor=#C73500;fillColor=#fa6800;fontColor=#ffffff;" vertex="1" parent="1">
          <mxGeometry x="521.7" y="6421" width="232" height="41" as="geometry"/>
        </mxCell>
        <mxCell id="Am0BHRrdn-XoFu_V9a6s-228" value="" style="endArrow=none;dashed=1;html=1;strokeColor=#000000;strokeWidth=2;entryX=1;entryY=1;entryDx=0;entryDy=0;entryPerimeter=0;" edge="1" parent="1" target="Am0BHRrdn-XoFu_V9a6s-218">
          <mxGeometry width="50" height="50" relative="1" as="geometry">
            <mxPoint x="753.7" y="6491" as="sourcePoint"/>
            <mxPoint x="208.7" y="6483" as="targetPoint"/>
          </mxGeometry>
        </mxCell>
        <mxCell id="Am0BHRrdn-XoFu_V9a6s-229" value="&lt;font color=&quot;#000000&quot;&gt;App X: 1.2&lt;/font&gt;" style="shape=step;perimeter=stepPerimeter;whiteSpace=wrap;html=1;fixedSize=1;shadow=0;strokeColor=#6666FF;fillColor=#FFFFFF;fontColor=#ffffff;dashed=1;strokeWidth=3;" vertex="1" parent="1">
          <mxGeometry x="751.2" y="6292" width="240.5" height="41" as="geometry"/>
        </mxCell>
        <mxCell id="Am0BHRrdn-XoFu_V9a6s-230" value="" style="shape=image;html=1;verticalAlign=top;verticalLabelPosition=bottom;labelBackgroundColor=#ffffff;imageAspect=0;aspect=fixed;image=https://cdn4.iconfinder.com/data/icons/icocentre-free-icons/137/f-check_256-128.png;shadow=0;dashed=1;strokeColor=#6666FF;strokeWidth=3;fillColor=#FFFFFF;" vertex="1" parent="1">
          <mxGeometry x="1270" y="6046" width="44" height="44" as="geometry"/>
        </mxCell>
        <mxCell id="Am0BHRrdn-XoFu_V9a6s-231" value="App C: 1.1" style="shape=step;perimeter=stepPerimeter;whiteSpace=wrap;html=1;fixedSize=1;shadow=0;strokeColor=#C73500;fillColor=#fa6800;fontColor=#ffffff;" vertex="1" parent="1">
          <mxGeometry x="525" y="6131" width="232" height="41" as="geometry"/>
        </mxCell>
        <mxCell id="Am0BHRrdn-XoFu_V9a6s-234" value="App A: 0.7" style="shape=step;perimeter=stepPerimeter;whiteSpace=wrap;html=1;fixedSize=1;shadow=0;strokeColor=#3A5431;fillColor=#6d8764;fontColor=#ffffff;" vertex="1" parent="1">
          <mxGeometry x="304.7" y="6705" width="135.15" height="41" as="geometry"/>
        </mxCell>
        <mxCell id="Am0BHRrdn-XoFu_V9a6s-235" value="App B: 0.8" style="shape=step;perimeter=stepPerimeter;whiteSpace=wrap;html=1;fixedSize=1;shadow=0;strokeColor=#B09500;fillColor=#e3c800;fontColor=#ffffff;" vertex="1" parent="1">
          <mxGeometry x="418.84999999999997" y="6705" width="176" height="41" as="geometry"/>
        </mxCell>
        <mxCell id="Am0BHRrdn-XoFu_V9a6s-236" value="" style="shape=crossbar;whiteSpace=wrap;html=1;rounded=1;shadow=0;strokeColor=#000000;fillColor=#FFFFFF;" vertex="1" parent="1">
          <mxGeometry x="287.34999999999997" y="6669" width="120" height="20" as="geometry"/>
        </mxCell>
        <mxCell id="Am0BHRrdn-XoFu_V9a6s-237" value="" style="shape=crossbar;whiteSpace=wrap;html=1;rounded=1;shadow=0;strokeColor=#000000;fillColor=#FFFFFF;" vertex="1" parent="1">
          <mxGeometry x="407.34999999999997" y="6669" width="120" height="20" as="geometry"/>
        </mxCell>
        <mxCell id="Am0BHRrdn-XoFu_V9a6s-238" value="" style="shape=crossbar;whiteSpace=wrap;html=1;rounded=1;shadow=0;strokeColor=#000000;fillColor=#FFFFFF;" vertex="1" parent="1">
          <mxGeometry x="527.35" y="6669" width="120" height="20" as="geometry"/>
        </mxCell>
        <mxCell id="Am0BHRrdn-XoFu_V9a6s-239" value="" style="shape=crossbar;whiteSpace=wrap;html=1;rounded=1;shadow=0;strokeColor=#000000;fillColor=#FFFFFF;" vertex="1" parent="1">
          <mxGeometry x="647.35" y="6669" width="120" height="20" as="geometry"/>
        </mxCell>
        <mxCell id="Am0BHRrdn-XoFu_V9a6s-240" value="" style="shape=crossbar;whiteSpace=wrap;html=1;rounded=1;shadow=0;strokeColor=#000000;fillColor=#FFFFFF;" vertex="1" parent="1">
          <mxGeometry x="767.35" y="6669" width="120" height="20" as="geometry"/>
        </mxCell>
        <mxCell id="Am0BHRrdn-XoFu_V9a6s-241" value="" style="shape=crossbar;whiteSpace=wrap;html=1;rounded=1;shadow=0;strokeColor=#000000;fillColor=#FFFFFF;" vertex="1" parent="1">
          <mxGeometry x="887.35" y="6669" width="120" height="20" as="geometry"/>
        </mxCell>
        <mxCell id="Am0BHRrdn-XoFu_V9a6s-242" value="" style="shape=crossbar;whiteSpace=wrap;html=1;rounded=1;shadow=0;strokeColor=#000000;fillColor=#FFFFFF;" vertex="1" parent="1">
          <mxGeometry x="1007.35" y="6669" width="120" height="20" as="geometry"/>
        </mxCell>
        <mxCell id="Am0BHRrdn-XoFu_V9a6s-243" value="" style="shape=crossbar;whiteSpace=wrap;html=1;rounded=1;shadow=0;strokeColor=#000000;fillColor=#FFFFFF;" vertex="1" parent="1">
          <mxGeometry x="1127.3500000000001" y="6669" width="120" height="20" as="geometry"/>
        </mxCell>
        <mxCell id="Am0BHRrdn-XoFu_V9a6s-244" value="App B: 0.8" style="shape=step;perimeter=stepPerimeter;whiteSpace=wrap;html=1;fixedSize=1;shadow=0;strokeColor=#B09500;fillColor=#e3c800;fontColor=#ffffff;" vertex="1" parent="1">
          <mxGeometry x="381.34999999999997" y="6746" width="176" height="41" as="geometry"/>
        </mxCell>
        <mxCell id="Am0BHRrdn-XoFu_V9a6s-245" value="" style="endArrow=classic;html=1;strokeWidth=2;entryX=1;entryY=0.5;entryDx=0;entryDy=0;entryPerimeter=0;fillColor=none;strokeColor=#6666FF;" edge="1" parent="1">
          <mxGeometry width="50" height="50" relative="1" as="geometry">
            <mxPoint x="1034.85" y="6573" as="sourcePoint"/>
            <mxPoint x="1008.3499999999998" y="6669" as="targetPoint"/>
          </mxGeometry>
        </mxCell>
        <mxCell id="Am0BHRrdn-XoFu_V9a6s-246" value="&lt;b&gt;&lt;font color=&quot;#6666ff&quot;&gt;Deadline&lt;/font&gt;&lt;/b&gt;" style="text;html=1;strokeColor=none;fillColor=none;align=center;verticalAlign=middle;whiteSpace=wrap;rounded=0;shadow=0;" vertex="1" parent="1">
          <mxGeometry x="1017.85" y="6552" width="40" height="20" as="geometry"/>
        </mxCell>
        <mxCell id="Am0BHRrdn-XoFu_V9a6s-247" value="&lt;font color=&quot;#6666ff&quot;&gt;&lt;b&gt;Time Line&lt;/b&gt;&lt;/font&gt;" style="text;html=1;strokeColor=none;fillColor=none;align=center;verticalAlign=middle;whiteSpace=wrap;rounded=0;shadow=0;" vertex="1" parent="1">
          <mxGeometry x="218" y="6669" width="69.35" height="20" as="geometry"/>
        </mxCell>
        <mxCell id="Am0BHRrdn-XoFu_V9a6s-248" value="App C: 1.1" style="shape=step;perimeter=stepPerimeter;whiteSpace=wrap;html=1;fixedSize=1;shadow=0;strokeColor=#C73500;fillColor=#fa6800;fontColor=#ffffff;" vertex="1" parent="1">
          <mxGeometry x="535.85" y="6746" width="232" height="41" as="geometry"/>
        </mxCell>
        <mxCell id="Am0BHRrdn-XoFu_V9a6s-249" value="" style="endArrow=none;dashed=1;html=1;strokeColor=#000000;strokeWidth=2;entryX=1;entryY=1;entryDx=0;entryDy=0;entryPerimeter=0;" edge="1" parent="1" target="Am0BHRrdn-XoFu_V9a6s-239">
          <mxGeometry width="50" height="50" relative="1" as="geometry">
            <mxPoint x="767.8499999999998" y="6816" as="sourcePoint"/>
            <mxPoint x="222.85" y="6808" as="targetPoint"/>
          </mxGeometry>
        </mxCell>
        <mxCell id="Am0BHRrdn-XoFu_V9a6s-250" value="&lt;font color=&quot;#000000&quot;&gt;App X: 1.2&lt;/font&gt;" style="shape=step;perimeter=stepPerimeter;whiteSpace=wrap;html=1;fixedSize=1;shadow=0;strokeColor=#6666FF;fillColor=#FFFFFF;fontColor=#ffffff;dashed=1;strokeWidth=3;" vertex="1" parent="1">
          <mxGeometry x="765.35" y="6617" width="240.5" height="41" as="geometry"/>
        </mxCell>
        <mxCell id="Am0BHRrdn-XoFu_V9a6s-251" value="" style="shape=image;html=1;verticalAlign=top;verticalLabelPosition=bottom;labelBackgroundColor=#ffffff;imageAspect=0;aspect=fixed;image=https://cdn3.iconfinder.com/data/icons/freeapplication/png/24x24/Delete.png;shadow=0;dashed=1;strokeColor=#6666FF;strokeWidth=3;fillColor=#FFFFFF;" vertex="1" parent="1">
          <mxGeometry x="1292.15" y="6669" width="24" height="24" as="geometry"/>
        </mxCell>
        <mxCell id="Am0BHRrdn-XoFu_V9a6s-252" value="App C: 1.1" style="shape=step;perimeter=stepPerimeter;whiteSpace=wrap;html=1;fixedSize=1;shadow=0;strokeColor=#C73500;fillColor=#fa6800;fontColor=#ffffff;dashed=1;strokeWidth=3;" vertex="1" parent="1">
          <mxGeometry x="647.65" y="6831" width="232" height="41" as="geometry"/>
        </mxCell>
        <mxCell id="Am0BHRrdn-XoFu_V9a6s-255" value="App A: 0.7" style="shape=step;perimeter=stepPerimeter;whiteSpace=wrap;html=1;fixedSize=1;shadow=0;strokeColor=#3A5431;fillColor=#6d8764;fontColor=#ffffff;strokeWidth=3;dashed=1;" vertex="1" parent="1">
          <mxGeometry x="828.4000000000001" y="6474" width="135.15" height="41" as="geometry"/>
        </mxCell>
        <mxCell id="Am0BHRrdn-XoFu_V9a6s-256" value="" style="shape=image;html=1;verticalAlign=top;verticalLabelPosition=bottom;labelBackgroundColor=#ffffff;imageAspect=0;aspect=fixed;image=https://cdn4.iconfinder.com/data/icons/icocentre-free-icons/137/f-check_256-128.png;shadow=0;dashed=1;strokeColor=#6666FF;strokeWidth=3;fillColor=#FFFFFF;" vertex="1" parent="1">
          <mxGeometry x="1268" y="6336" width="44" height="44" as="geometry"/>
        </mxCell>
        <mxCell id="Am0BHRrdn-XoFu_V9a6s-257" value="App B: 0.8" style="shape=step;perimeter=stepPerimeter;whiteSpace=wrap;html=1;fixedSize=1;shadow=0;strokeColor=#B09500;fillColor=#e3c800;fontColor=#ffffff;dashed=1;strokeWidth=3;" vertex="1" parent="1">
          <mxGeometry x="944.25" y="6474" width="176" height="41" as="geometry"/>
        </mxCell>
      </root>
    </mxGraphModel>
  </diagram>
</mxfile>
